<svg width="180" height="180" viewBox="0 0 180 180" fill="none" xmlns="http://www.w3.org/2000/svg">
  <style>
    @media (prefers-color-scheme: light) {
      .background { fill: #1e1e2e; }
      .foreground { fill: white; }
    }
    @media (prefers-color-scheme: dark) {
      .background { fill: white; }
      .foreground { fill: #1e1e2e; }
    }
  </style>
  <rect class="background" width="180" height="180" rx="37" />
  <!-- Outer arc -->
  <path class="foreground" d="M90 52C68.2 52 48.6 61.2 34.5 76.2L46.2 87.9C57.1 76.2 72.7 69 90 69C107.3 69 122.9 76.2 133.8 87.9L145.5 76.2C131.4 61.2 111.8 52 90 52Z"/>
  <!-- Middle arc -->
  <path class="foreground" d="M90 86C75.4 86 62.3 92.2 53 102L64.7 113.7C70.8 107 79.0 103 90 103C101 103 109.2 107 115.3 113.7L127 102C117.7 92.2 104.6 86 90 86Z"/>
  <!-- Dot -->
  <circle class="foreground" cx="90" cy="130" r="11"/>
</svg>
